<svg id="Group_3" data-name="Group 3" xmlns="http://www.w3.org/2000/svg" width="78" height="60.937" viewBox="0 0 78 60.937">
  <g id="Group_2" data-name="Group 2">
    <path id="Path_2" data-name="Path 2" d="M75.561,60.875H68.249a2.437,2.437,0,0,0-1.731.707L62.375,65.75H58.5V63.312A7.312,7.312,0,0,0,51.187,56H7.312A7.312,7.312,0,0,0,0,63.312v39a7.312,7.312,0,0,0,7.312,7.312H9.75v-4.875H7.312a2.437,2.437,0,0,1-2.437-2.437v-39a2.437,2.437,0,0,1,2.437-2.437H51.187a2.437,2.437,0,0,1,2.437,2.437V87.687H58.5V70.625h4.875a2.437,2.437,0,0,0,1.731-.707L69.25,65.75h3.876V99.874H69.248L65.08,95.706l-3.437,3.437,4.875,4.875a2.437,2.437,0,0,0,1.731.731h7.312A2.437,2.437,0,0,0,78,102.312v-39a2.437,2.437,0,0,0-2.439-2.437Z" transform="translate(0 -56)" fill="#ca0000"/>
    <path id="Path_3" data-name="Path 3" d="M111.687,134.625a2.437,2.437,0,0,0,2.437-2.437v-9.75A2.437,2.437,0,0,0,111.687,120H82.437A2.437,2.437,0,0,0,80,122.437v9.75a2.437,2.437,0,0,0,2.437,2.437Z" transform="translate(-67.813 -110.25)" fill="#ca0000"/>
    <path id="Path_4" data-name="Path 4" d="M249.75,296h-4.875A4.875,4.875,0,0,0,240,300.875V315.5a4.875,4.875,0,0,0,4.875,4.875h4.875a9.75,9.75,0,0,0,9.75-9.75V305.75A9.75,9.75,0,0,0,249.75,296Zm4.875,14.625a4.875,4.875,0,0,1-4.875,4.875h-4.875V300.875h4.875a4.875,4.875,0,0,1,4.875,4.875Z" transform="translate(-203.438 -259.438)" fill="#ca0000"/>
    <path id="Path_5" data-name="Path 5" d="M110.625,305.75h-9.75V296H96v24.375h4.875v-9.75h9.75v9.75H115.5V296h-4.875Z" transform="translate(-81.375 -259.438)" fill="#ca0000"/>
  </g>
</svg>
