<svg id="Group_19" data-name="Group 19" xmlns="http://www.w3.org/2000/svg" width="44.541" height="66.667" viewBox="0 0 44.541 66.667">
  <path id="Path_26" data-name="Path 26" d="M114.972,90.871a9.871,9.871,0,1,0-9.871,9.87,9.871,9.871,0,0,0,9.871-9.87Zm0,0" transform="translate(-82.831 -70.453)" fill="#ca0000"/>
  <path id="Path_27" data-name="Path 27" d="M34.648,54.948c1.529-1.992,10.5-14.316,13.515-18.433,3.59-4.9,6.9-9.809,6.9-16.1A20.417,20.417,0,0,0,34.651,0h0A20.416,20.416,0,0,0,14.23,20.421c0,6.285,3.312,11.2,6.9,16.1ZM20.871,20.418A13.777,13.777,0,1,1,34.648,34.195,13.777,13.777,0,0,1,20.871,20.418Zm0,0" transform="translate(-12.377)" fill="#ca0000"/>
  <path id="Path_28" data-name="Path 28" d="M29.768,394.2c-.4.552-7.57,10.128-7.57,10.128L14.773,394.2H5.783L0,409.541H44.541L38.757,394.2Zm0,0" transform="translate(0 -342.874)" fill="#ca0000"/>
</svg>
