<svg xmlns="http://www.w3.org/2000/svg" width="97.511" height="82.678" viewBox="0 0 97.511 82.678">
  <g id="Group_5" data-name="Group 5" transform="translate(0 -38.938)">
    <path id="Path_6" data-name="Path 6" d="M313.93,233.886v6.286c6.153,3.075,9.729,6.88,9.729,10.656,0,8.653-17.409,15.451-34.633,16.883a2.856,2.856,0,1,0,.47,5.692c14.993-1.234,39.874-7.7,39.874-22.576,0-8.122-7.947-13.71-15.44-16.942Z" transform="translate(-231.859 -157.819)" fill="#ca0000"/>
    <path id="Path_7" data-name="Path 7" d="M31.581,258.012a2.858,2.858,0,0,0-4.827,1.392l-1.262,5.779C6.585,260.1-2.492,249.15,15.474,240.172v-6.286c-23.575,10.17-19.876,29.272,8.8,36.885l-1.135,5.2a2.858,2.858,0,0,0,3.851,3.261l14.279-5.712a2.857,2.857,0,0,0,.977-4.653Z" transform="translate(0 -157.819)" fill="#ca0000"/>
    <path id="Path_8" data-name="Path 8" d="M152.215,39.31a2.855,2.855,0,0,0-2.836.011L126.23,52.687l24.728,14.277L175.7,52.615Z" transform="translate(-102.189)" fill="#ca0000"/>
    <path id="Path_9" data-name="Path 9" d="M111.235,163.827a2.856,2.856,0,0,0,1.428,2.473l23.3,13.454v-28.38L111.235,137.1v26.731Z" transform="translate(-90.05 -79.463)" fill="#ca0000"/>
    <path id="Path_10" data-name="Path 10" d="M295.816,163.526v-26.8l-24.732,14.346v28.383L294.388,166A2.855,2.855,0,0,0,295.816,163.526Z" transform="translate(-219.456 -79.163)" fill="#ca0000"/>
  </g>
</svg>
