<svg xmlns="http://www.w3.org/2000/svg" width="89.671" height="82.203" viewBox="0 0 89.671 82.203">
  <g id="Group_6" data-name="Group 6" transform="translate(-0.004 -0.492)">
    <path id="Path_11" data-name="Path 11" d="M23.351,187.863a13.99,13.99,0,0,1-13.235-9.532l-.131-.43a13.638,13.638,0,0,1-.647-4.05V148.375L.274,178.634a8.486,8.486,0,0,0,5.948,10.294L64,204.4a8.572,8.572,0,0,0,2.152.276,8.331,8.331,0,0,0,8.075-6.11l3.366-10.7Zm0,0" transform="translate(0 -121.981)" fill="#ca0000"/>
    <path id="Path_12" data-name="Path 12" d="M156.793,79.439a7.473,7.473,0,1,0-7.473-7.473A7.473,7.473,0,0,0,156.793,79.439Zm0,0" transform="translate(-123.167 -52.79)" fill="#ca0000"/>
    <path id="Path_13" data-name="Path 13" d="M150.709.492H94.661A9.355,9.355,0,0,0,85.32,9.834v41.1a9.355,9.355,0,0,0,9.341,9.342h56.048a9.355,9.355,0,0,0,9.342-9.342V9.834A9.355,9.355,0,0,0,150.709.492ZM94.661,7.966h56.048a1.869,1.869,0,0,1,1.868,1.869V36.36l-11.8-13.773a6.693,6.693,0,0,0-5.011-2.3,6.531,6.531,0,0,0-4.992,2.358L116.894,39.3l-4.521-4.51a6.559,6.559,0,0,0-9.267,0L92.793,45.1V9.834a1.869,1.869,0,0,1,1.868-1.868Zm0,0" transform="translate(-70.376)" fill="#ca0000"/>
  </g>
</svg>
