<svg xmlns="http://www.w3.org/2000/svg" width="39.426" height="84.479" viewBox="0 0 39.426 84.479">
  <path id="Path_1" data-name="Path 1" d="M69.384,75.358l-1.247,4.825q-5.61,2.1-8.953,3.193a24.838,24.838,0,0,1-7.764,1.1q-6.792,0-10.562-3.136a9.925,9.925,0,0,1-3.768-7.967,26.7,26.7,0,0,1,.281-3.834,44.664,44.664,0,0,1,.911-4.426L42.956,49.45q.624-2.25,1.052-4.265a17.586,17.586,0,0,0,.425-3.67c0-2-.437-3.4-1.308-4.186s-2.533-1.183-5-1.183a13.783,13.783,0,0,0-3.716.538c-1.272.356-2.358.7-3.271,1.019l1.25-4.829q4.593-1.77,8.789-3.03a27.634,27.634,0,0,1,7.948-1.262q6.745,0,10.4,3.087a10,10,0,0,1,3.655,8.018c0,.681-.08,1.88-.252,3.594A22.9,22.9,0,0,1,62,48L57.341,63.6a39.564,39.564,0,0,0-1.023,4.3,20.99,20.99,0,0,0-.455,3.645q0,3.107,1.466,4.237t5.093,1.126a15.469,15.469,0,0,0,3.85-.563A22.369,22.369,0,0,0,69.384,75.358Zm1.18-65.493a8.918,8.918,0,0,1-3.256,6.948,11.436,11.436,0,0,1-7.84,2.874,11.566,11.566,0,0,1-7.88-2.874,9.011,9.011,0,0,1,0-13.918,12.119,12.119,0,0,1,15.72,0,9,9,0,0,1,3.256,6.97Z" transform="translate(-31.138 0)" fill="#ca0000"/>
</svg>
